<svg xmlns="http://www.w3.org/2000/svg" xmlns:xlink="http://www.w3.org/1999/xlink" version="1.1" width="256" height="256" viewBox="0 0 256 256" xml:space="preserve">

<defs>
</defs>
<g style="stroke: none; stroke-width: 0; stroke-dasharray: none; stroke-linecap: butt; stroke-linejoin: miter; stroke-miterlimit: 10; fill: none; fill-rule: nonzero; opacity: 0.3;" transform="translate(1.4065934065934016 1.4065934065934016) scale(2.81 2.81)" >
	<path d="M 79.191 90.023 c -0.78 0 -1.526 -0.307 -2.084 -0.865 l -8.425 -8.424 c -0.624 -0.626 -0.934 -1.487 -0.851 -2.365 l 0.401 -4.212 l -2.609 0.508 c -0.879 0.157 -1.779 -0.088 -2.457 -0.678 c -0.677 -0.589 -1.047 -1.441 -1.013 -2.338 l 0.161 -4.256 l -4.619 0.688 c -0.914 0.132 -1.848 -0.183 -2.5 -0.836 l -4.44 -4.439 c -0.708 -0.71 -1.007 -1.717 -0.801 -2.694 l 0.839 -4.011 l -3.977 0.875 c -0.981 0.207 -1.985 -0.094 -2.692 -0.801 l -3.29 -3.29 c -10.721 5.331 -23.895 3.233 -32.41 -5.283 c -10.966 -10.966 -10.966 -28.81 0 -39.776 c 10.965 -10.966 28.81 -10.966 39.776 0 c 8.246 8.247 10.512 20.702 5.797 31.303 l 35.339 35.338 c 0.557 0.557 0.864 1.298 0.864 2.087 v 9.641 c 0 1.509 -1.132 2.771 -2.632 2.934 l -8.055 0.875 C 79.406 90.017 79.298 90.023 79.191 90.023 z M 68.271 71.208 c 0.734 0 1.438 0.273 1.991 0.782 c 0.684 0.631 1.026 1.524 0.937 2.45 l -0.401 4.21 l 8.416 8.399 l 8.004 -0.881 v -9.614 L 50.397 39.747 l 0.47 -0.957 c 4.743 -9.66 2.824 -21.255 -4.774 -28.854 c -9.804 -9.804 -25.757 -9.803 -35.56 0 c -9.804 9.804 -9.804 25.756 0 35.56 c 7.849 7.849 20.129 9.598 29.865 4.257 l 0.98 -0.539 l 4.855 4.854 l 3.985 -0.847 c 0.979 -0.208 1.985 0.094 2.691 0.801 c 0.707 0.707 1.007 1.713 0.803 2.691 l -0.839 4.014 l 4.431 4.412 l 4.628 -0.666 c 0.87 -0.123 1.739 0.144 2.39 0.732 c 0.65 0.586 1.005 1.426 0.972 2.301 l -0.161 4.256 l 2.609 -0.505 C 67.918 71.224 68.096 71.208 68.271 71.208 z M 22.452 27.983 c -2.142 0 -4.284 -0.816 -5.914 -2.446 c -3.261 -3.261 -3.261 -8.567 0 -11.828 c 3.261 -3.26 8.567 -3.26 11.828 0 c 3.261 3.261 3.261 8.567 0 11.828 C 26.735 27.168 24.593 27.983 22.452 27.983 z M 22.452 14.243 c -1.379 0 -2.757 0.525 -3.806 1.574 c -2.099 2.099 -2.099 5.514 0 7.612 c 2.099 2.098 5.512 2.099 7.612 0 c 2.099 -2.099 2.099 -5.514 0 -7.612 C 25.208 14.768 23.83 14.243 22.452 14.243 z" style="stroke: none; stroke-width: 1; stroke-dasharray: none; stroke-linecap: butt; stroke-linejoin: miter; stroke-miterlimit: 10; fill: rgb(255,255,255); fill-rule: nonzero; opacity: 1;" transform=" matrix(1 0 0 1 0 0) " stroke-linecap="round" />
</g>
</svg>